{"title":"2pac - Brenda's Got a Baby feat.  Dave Hollister.avi","uid":13954085,"size":50081792,"categoryP":"video","categoryS":"music_videos","magnet":"?xt=urn:btih:948dd39588ee57033f0ecaa1cc56f25163b2b737&amp;dn=2pac+-+Brenda%27s+Got+a+Baby+feat.++Dave+Hollister.avi&amp;tr=udp%3A%2F%2Ftracker.leechers-paradise.org%3A6969&amp;tr=udp%3A%2F%2Fzer0day.ch%3A1337&amp;tr=udp%3A%2F%2Fopen.demonii.com%3A1337&amp;tr=udp%3A%2F%2Ftracker.coppersurfer.tk%3A6969&amp;tr=udp%3A%2F%2Fexodus.desync.com%3A6969","seeders":0,"leechers":1,"uploader":".45cal","files":1,"time":1458529485,"description":"General\r\nComplete name               : E:VIDZEnglo video2pac - Brenda's Got a Baby feat.  Dave Hollister.avi\r\nFormat                      : AVI\r\nFormat/Info                 : Audio Video Interleave\r\nFile size                   : 47.8 MiB\r\nDuration                    : 4mn 0s\r\nOverall bit rate            : 1 669 Kbps\r\nWriting application         : Nandub v1.0rc2\r\nWriting library             : Nandub build 1853/release\r\n\r\nVideo\r\nID                          : 0\r\nFormat                      : MPEG-4 Visual\r\nFormat profile              : Advanced   \r\nFormat settings, BVOP       : 1\r\nFormat settings, QPel       : No\r\nFormat settings, GMC        : No warppoints\r\nFormat settings, Matrix     : Default (H.263)\r\nMuxing mode                 : Packed bitstream\r\nCodec ID                    : XVID\r\nCodec ID/Hint               : XviD\r\nDuration                    : 4mn 0s\r\nBit rate                    : 1 464 Kbps\r\nWidth                       : 592 pixels\r\nHeight                      : 448 pixels\r\nDisplay aspect ratio        : 4:3\r\nFrame rate                  : 23.976 fps\r\nColor space                 : YUV\r\nChroma subsampling          : 4:2:0\r\nBit depth                   : 8 bits\r\nScan type                   : Progressive\r\nCompression mode            : Lossy\r\nBits/(Pixel*Frame)          : 0.230\r\nStream size                 : 41.9 MiB (88%)\r\nWriting library             : XviD 1.1.0 (UTC 2005-11-22)\r\n\r\nAudio\r\nID                          : 1\r\nFormat                      : MPEG Audio\r\nFormat version              : Version 1\r\nFormat profile              : Layer 3\r\nMode                        : Joint stereo\r\nCodec ID                    : 55\r\nCodec ID/Hint               : MP3\r\nDuration                    : 4mn 0s\r\nBit rate mode               : Constant\r\nBit rate                    : 192 Kbps\r\nChannel(s)                  : 2 channels\r\nSampling rate               : 44.1 KHz\r\nCompression mode            : Lossy\r\nStream size                 : 5.49 MiB (12%)\r\nAlignment                   : Aligned on interleaves\r\nInterleave, duration        : 26 ms (0.63 video frame)\r\nInterleave, preload duratio : 496 ms","torrent":{"xt":"urn:btih:948dd39588ee57033f0ecaa1cc56f25163b2b737","amp;dn":"2pac+-+Brenda%27s+Got+a+Baby+feat.++Dave+Hollister.avi","amp;tr":["udp%3A%2F%2Ftracker.leechers-paradise.org%3A6969","udp%3A%2F%2Fzer0day.ch%3A1337","udp%3A%2F%2Fopen.demonii.com%3A1337","udp%3A%2F%2Ftracker.coppersurfer.tk%3A6969","udp%3A%2F%2Fexodus.desync.com%3A6969"],"infoHash":"948dd39588ee57033f0ecaa1cc56f25163b2b737","infoHashBuffer":{"type":"Buffer","data":[148,141,211,149,136,238,87,3,63,14,202,161,204,86,242,81,99,178,183,55]},"announce":[],"urlList":[]}}